<svg xmlns="http://www.w3.org/2000/svg" width="10" height="11" fill="none"><g fill="#404040" opacity=".5"><path d="M4.725 2.11c1.679 0 3.494 1.318 3.494 3.357 0 1.704-1.48 3.37-3.494 3.37-1.716 0-3.482-1.368-3.482-3.37 0-1.703 1.493-3.357 3.482-3.357Zm0-1.243C2.19.867 0 2.93 0 5.467c0 2.55 2.189 4.614 4.725 4.614 2.55 0 4.738-2.064 4.738-4.614 0-2.536-2.189-4.6-4.738-4.6Z"/><rect width=".957" height="3.348" x="3.646" y="7.652" rx=".478"/><rect width=".957" height="3.348" x="5.08" y="7.652" rx=".478"/><rect width=".957" height="3.348" x="3.646" rx=".478"/><rect width=".957" height="3.348" x="5.08" rx=".478"/></g></svg>