<svg xmlns="http://www.w3.org/2000/svg" width="20" height="23" fill="none"><path fill="#F0AF3B" d="M9.88 4.412c3.51 0 7.306 2.756 7.306 7.02 0 3.562-3.094 7.046-7.306 7.046-3.588 0-7.28-2.86-7.28-7.046 0-3.562 3.12-7.02 7.28-7.02Zm0-2.6C4.576 1.812 0 6.128 0 11.432c0 5.33 4.576 9.646 9.88 9.646 5.33 0 9.906-4.316 9.906-9.646 0-5.304-4.576-9.62-9.906-9.62Z"/><rect width="2" height="7" x="7.622" y="16" fill="#F0AF3B" rx="1"/><rect width="2" height="7" x="10.622" y="16" fill="#F0AF3B" rx="1"/><rect width="2" height="7" x="7.622" fill="#F0AF3B" rx="1"/><rect width="2" height="7" x="10.622" fill="#F0AF3B" rx="1"/></svg>