<svg xmlns="http://www.w3.org/2000/svg" width="18" height="18" fill="none"><path fill="url(#a)" d="M13.033 0H4.967A4.973 4.973 0 0 0 0 4.967v8.066A4.973 4.973 0 0 0 4.967 18h8.066A4.973 4.973 0 0 0 18 13.033V4.967A4.973 4.973 0 0 0 13.033 0Zm3.37 13.033a3.374 3.374 0 0 1-3.37 3.37H4.967a3.374 3.374 0 0 1-3.37-3.37V4.967a3.374 3.374 0 0 1 3.37-3.37h8.066a3.374 3.374 0 0 1 3.37 3.37v8.066Z"/><path fill="url(#b)" d="M9 4.362A4.643 4.643 0 0 0 4.362 9 4.643 4.643 0 0 0 9 13.638 4.643 4.643 0 0 0 13.638 9 4.643 4.643 0 0 0 9 4.362Zm0 7.679a3.044 3.044 0 0 1-3.041-3.04 3.045 3.045 0 0 1 3.04-3.042A3.045 3.045 0 0 1 12.042 9 3.044 3.044 0 0 1 9 12.041Z"/><path fill="url(#c)" d="M13.833 3.008a1.176 1.176 0 0 0-1.172 1.171c0 .308.126.61.344.828.217.218.52.343.828.343.308 0 .61-.125.828-.343a1.176 1.176 0 0 0 0-1.657 1.176 1.176 0 0 0-.828-.342Z"/><defs><linearGradient id="a" x1="0" x2="11.385" y1="0" y2="21.776" gradientUnits="userSpaceOnUse"><stop stop-color="#4366C9"/><stop offset=".187" stop-color="#AA38AB"/><stop offset=".548" stop-color="#F64F51"/><stop offset=".745" stop-color="#FF8E48"/><stop offset="1" stop-color="#FF7E45"/></linearGradient><linearGradient id="b" x1="4.362" x2="10.229" y1="4.362" y2="15.584" gradientUnits="userSpaceOnUse"><stop stop-color="#4366C9"/><stop offset=".187" stop-color="#AA38AB"/><stop offset=".548" stop-color="#F64F51"/><stop offset=".745" stop-color="#FF8E48"/><stop offset="1" stop-color="#FF7E45"/></linearGradient><linearGradient id="c" x1="12.661" x2="14.143" y1="3.008" y2="5.842" gradientUnits="userSpaceOnUse"><stop stop-color="#4366C9"/><stop offset=".187" stop-color="#AA38AB"/><stop offset=".548" stop-color="#F64F51"/><stop offset=".745" stop-color="#FF8E48"/><stop offset="1" stop-color="#FF7E45"/></linearGradient></defs></svg>