<svg xmlns="http://www.w3.org/2000/svg" width="18" height="10" fill="none"><path fill="#4A76A8" d="M17.904 9.031a1.185 1.185 0 0 0-.06-.114c-.313-.548-.91-1.22-1.79-2.017l-.02-.018-.008-.01-.01-.008h-.01c-.4-.371-.652-.62-.758-.749-.194-.243-.238-.49-.132-.739.075-.189.357-.587.844-1.195.256-.323.459-.581.609-.776 1.08-1.4 1.55-2.293 1.406-2.683l-.056-.09c-.038-.056-.134-.106-.29-.151a1.515 1.515 0 0 0-.6-.023l-2.7.018a.36.36 0 0 0-.187.005l-.122.027-.047.023-.037.027a.413.413 0 0 0-.103.096.624.624 0 0 0-.094.16 14.72 14.72 0 0 1-1.003 2.053c-.23.377-.443.704-.637.981s-.356.48-.487.611c-.132.131-.25.236-.357.315-.106.08-.187.113-.243.1a6.998 6.998 0 0 1-.16-.036.613.613 0 0 1-.21-.224.982.982 0 0 1-.108-.356 3.82 3.82 0 0 1-.033-.37 7.559 7.559 0 0 1 .005-.437c.006-.189.01-.317.01-.383 0-.232.004-.483.013-.753.01-.271.017-.486.024-.644.006-.158.009-.325.009-.502 0-.176-.011-.314-.033-.415a1.396 1.396 0 0 0-.098-.292.495.495 0 0 0-.192-.219A1.1 1.1 0 0 0 9.925.12C9.594.047 9.172.007 8.66 0 7.498-.01 6.75.062 6.42.221c-.131.066-.25.158-.356.273-.113.134-.128.207-.047.219.375.055.64.186.796.392l.057.11c.043.08.087.22.13.42.045.2.073.423.085.666.031.444.031.824 0 1.14-.031.317-.06.563-.089.74a1.45 1.45 0 0 1-.239.63.16.16 0 0 1-.047.045.719.719 0 0 1-.253.046c-.087 0-.193-.043-.318-.128a2.228 2.228 0 0 1-.39-.351 4.7 4.7 0 0 1-.454-.626 10.816 10.816 0 0 1-.525-.949l-.15-.264c-.093-.17-.221-.419-.384-.744-.162-.326-.306-.64-.43-.945A.603.603 0 0 0 3.58.603L3.533.576a.647.647 0 0 0-.15-.078A1.016 1.016 0 0 0 3.168.44L.6.457C.338.457.16.515.066.631L.028.685A.289.289 0 0 0 0 .832c0 .066.019.149.056.246A29.78 29.78 0 0 0 1.28 3.56c.44.797.823 1.439 1.148 1.925.325.487.656.947.994 1.378.337.432.56.71.67.83.11.123.195.214.257.275l.235.219c.15.146.37.32.66.524.291.204.613.405.966.603.353.197.764.359 1.232.483a4.37 4.37 0 0 0 1.369.15h1.077c.219-.017.384-.084.497-.2l.037-.046a.597.597 0 0 0 .07-.168.905.905 0 0 0 .033-.251 2.932 2.932 0 0 1 .061-.707c.047-.21.1-.368.16-.475a1.17 1.17 0 0 1 .36-.401.623.623 0 0 1 .075-.032c.15-.049.327-.002.53.141s.394.32.572.53c.178.21.392.445.642.707.25.261.468.456.656.584l.187.11c.125.072.288.14.488.2.2.061.374.076.524.046l2.4-.037c.237 0 .421-.038.552-.114.132-.076.21-.16.235-.25a.688.688 0 0 0 .004-.311 1.12 1.12 0 0 0-.066-.242Z"/></svg>