<svg xmlns="http://www.w3.org/2000/svg" width="18" height="15" fill="none"><mask id="a" fill="#fff"><path d="M15.777 0c-1.288 0-2.333 1.243-2.737 1.929a.193.193 0 0 0-.019.15l.493 1.775a.2.2 0 0 0 .193.146h.825c.081 0 .153-.048.187-.122.207-.452.624-1.165 1.02-1.21a.302.302 0 0 0 .074-.016c.647-.25 1.144-.194 1.502-.02.197.095.684-.08.684-.299V.848a.376.376 0 0 0-.132-.304C17.568.312 16.893 0 15.777 0Z"/></mask><path fill="#FB5B1D" d="M15.777 0c-1.288 0-2.333 1.243-2.737 1.929a.193.193 0 0 0-.019.15l.493 1.775a.2.2 0 0 0 .193.146h.825c.081 0 .153-.048.187-.122.207-.452.624-1.165 1.02-1.21a.302.302 0 0 0 .074-.016c.647-.25 1.144-.194 1.502-.02.197.095.684-.08.684-.299V.848a.376.376 0 0 0-.132-.304C17.568.312 16.893 0 15.777 0Z"/><path fill="#FB5B1D" d="m13.04 1.929.861.507-.861-.507ZM17.867.544l-.613.79.613-.79Zm-.552 2.088-.435.9.435-.9Zm-1.502.02-.36-.933.36.933Zm-.075.017.112.994-.112-.994Zm-1.019 1.21-.91-.416.91.415Zm-1.205-.025.963-.268-.963.268Zm-.493-1.775-.964.268.964-.268Zm.88.357a3.97 3.97 0 0 1 .818-.962c.377-.316.74-.474 1.058-.474v-2c-.97 0-1.774.464-2.343.941a5.959 5.959 0 0 0-1.256 1.48l1.723 1.015ZM15.777 1c.939 0 1.386.263 1.477.334l1.226-1.58C17.974-.64 17.071-1 15.777-1v2Zm1.222-.152v1.485h2V.848h-2Zm.752.883c-.638-.308-1.425-.348-2.298-.012l.72 1.866c.422-.162.627-.091.707-.053l.87-1.8Zm-2.124-.056a1.581 1.581 0 0 0-.819.364 2.75 2.75 0 0 0-.451.483 5.334 5.334 0 0 0-.548.94l1.82.832c.085-.188.207-.41.33-.575a.834.834 0 0 1 .115-.132c.022-.018-.056.057-.224.076l-.223-1.988ZM14.532 3h-.825v2h.825V3Zm-.055.586-.492-1.775-1.928.536.493 1.774 1.927-.535ZM13.707 3a.8.8 0 0 1 .77.586l-1.927.535A1.2 1.2 0 0 0 13.707 5V3Zm1.746-1.28a.766.766 0 0 1 .174-.045l.223 1.988c.058-.007.182-.023.323-.078l-.72-1.866ZM17 2.332a.79.79 0 0 1 .237-.577c.066-.062.115-.08.12-.083a.2.2 0 0 1 .062-.013c.013-.001.152-.016.332.071l-.87 1.801c.28.135.553.134.713.12.181-.016.357-.062.513-.125.151-.061.335-.159.498-.312.153-.144.395-.44.395-.882h-2Zm.255-1a.63.63 0 0 1-.255-.485h2c0-.32-.109-.776-.519-1.094l-1.226 1.58Zm-3.445 2.13A.794.794 0 0 1 14.532 3v2c.49 0 .908-.292 1.097-.706l-1.82-.831Zm-1.631-2.041a1.193 1.193 0 0 0-.12.925l1.927-.536a.807.807 0 0 1-.084.625l-1.723-1.014Z" mask="url(#a)"/><path fill="#fff" stroke="#FB5B1D" stroke-width="2" d="M12.422 1.814h.006a3.15 3.15 0 0 1 1.717.461l.486.372c.026.025.052.05.08.073l.005.005.03.03.403.531a3.12 3.12 0 0 1 .36 1.88 3.166 3.166 0 0 1-.854 1.793l-.024.025-.023.027a20.971 20.971 0 0 1-7.965 5.929c-1.377.566-2.839.908-4.327 1.015.883-.77 1.654-1.687 2.335-2.637C5.725 9.819 6.625 8.162 7.398 6.74l.006-.01v-.001l.038-.069c.509-.937.963-1.77 1.406-2.469.448-.707.838-1.196 1.19-1.485l.006-.005.005-.004a3.773 3.773 0 0 1 2.373-.883Z"/><path stroke="#FB5B1D" d="M8.999 4h2.527c.11 0 .2.09.2.2v1.462a.2.2 0 0 0 .297.175l1.289-.71a.2.2 0 0 1 .291.132L14 7"/></svg>