<svg xmlns="http://www.w3.org/2000/svg" width="112" height="18" fill="none"><path fill="#404040" d="M8.093 3.602c2.835 0 5.901 2.226 5.901 5.67 0 2.877-2.499 5.691-5.901 5.691-2.898 0-5.88-2.31-5.88-5.691 0-2.877 2.52-5.67 5.88-5.67Zm0-2.1c-4.284 0-7.98 3.486-7.98 7.77 0 4.305 3.696 7.791 7.98 7.791 4.305 0 8.001-3.486 8.001-7.791 0-4.284-3.696-7.77-8.001-7.77ZM20.781 5.24h-2.1V17h2.1V5.24Zm-2.373-2.961c0 .672.588 1.197 1.323 1.197s1.344-.525 1.344-1.197-.61-1.218-1.344-1.218c-.735 0-1.323.546-1.323 1.218Zm10.048 14.784c3.339 0 5.46-1.491 5.46-3.696 0-2.562-2.058-3.465-5.46-3.465-2.394 0-2.982-.588-2.982-1.323 0-.819 1.113-1.491 2.982-1.491 1.428 0 2.12.21 2.75.546l.316.84h1.617V6.395c-.063-.042-2.016-1.218-4.683-1.218-2.961 0-5.124 1.512-5.124 3.402 0 2.142 1.428 3.381 5.124 3.381 2.898 0 3.297.63 3.297 1.407 0 1.281-1.638 1.806-3.297 1.806-2.478 0-4.074-1.176-4.452-1.449l-1.113 1.491c.105.084 2.373 1.848 5.565 1.848Zm13.742-9.891c1.47 0 2.268 1.113 2.268 2.352V17h2.1V9.65c0-3.003-1.89-4.473-4.515-4.473-1.344 0-2.751.798-4.053 1.785V.557h-2.1V17h2.1V9.041c1.428-1.134 2.73-1.869 4.2-1.869Zm8.996-1.932h-2.1V17h2.1V5.24Zm-2.373-2.961c0 .672.588 1.197 1.323 1.197s1.344-.525 1.344-1.197-.609-1.218-1.344-1.218c-.735 0-1.323.546-1.323 1.218Z"/><path fill="#F0AF3B" d="M60.775 3.581c1.239 0 2.646.189 3.738.693l.252 1.26h1.848V2.993c-1.68-1.05-3.99-1.512-5.838-1.512-2.583 0-6.405 1.239-6.405 4.242 0 3.486 3.612 4.179 6.72 4.179 2.352 0 4.074.588 4.074 2.457 0 1.281-1.722 2.604-4.536 2.604-2.373 0-4.242-.819-5.607-2.163l-1.24 1.827c1.723 1.512 3.97 2.436 6.868 2.436 3.276 0 6.846-1.806 6.846-4.704 0-3.717-3.108-4.62-6.51-4.62-2.31 0-4.284-.399-4.284-2.016 0-1.176 1.974-2.142 4.074-2.142ZM71.754 5.24h-2.1v7.35c0 2.646 1.638 4.473 4.746 4.473 1.406 0 2.918-.924 4.283-1.974L79.061 17h1.68V5.24h-2.1v7.791c-1.49 1.239-2.73 2.037-4.242 2.037-1.931 0-2.645-1.323-2.645-2.478V5.24Zm16.441 11.823c3.339 0 5.46-1.491 5.46-3.696 0-2.562-2.058-3.465-5.46-3.465-2.394 0-2.982-.588-2.982-1.323 0-.819 1.113-1.491 2.982-1.491 1.428 0 2.121.21 2.751.546l.315.84h1.617V6.395c-.063-.042-2.016-1.218-4.683-1.218-2.961 0-5.124 1.512-5.124 3.402 0 2.142 1.428 3.381 5.124 3.381 2.898 0 3.297.63 3.297 1.407 0 1.281-1.638 1.806-3.297 1.806-2.478 0-4.074-1.176-4.452-1.449l-1.113 1.491c.105.084 2.373 1.848 5.565 1.848Zm13.742-9.891c1.47 0 2.268 1.113 2.268 2.352V17h2.1V9.65c0-3.003-1.89-4.473-4.515-4.473-1.344 0-2.751.798-4.053 1.785V.557h-2.1V17h2.1V9.041c1.428-1.134 2.73-1.869 4.2-1.869Zm8.996-1.932h-2.1V17h2.1V5.24Zm-2.373-2.961c0 .672.588 1.197 1.323 1.197s1.344-.525 1.344-1.197-.609-1.218-1.344-1.218c-.735 0-1.323.546-1.323 1.218Z"/></svg>