<svg width="86" height="14" viewBox="0 0 86 14" fill="none" xmlns="http://www.w3.org/2000/svg">
<path d="M6.928 2.792C9.088 2.792 11.424 4.488 11.424 7.112C11.424 9.304 9.52 11.448 6.928 11.448C4.72 11.448 2.448 9.688 2.448 7.112C2.448 4.92 4.368 2.792 6.928 2.792ZM6.928 1.192C3.664 1.192 0.848 3.848 0.848 7.112C0.848 10.392 3.664 13.048 6.928 13.048C10.208 13.048 13.024 10.392 13.024 7.112C13.024 3.848 10.208 1.192 6.928 1.192ZM16.595 4.04H14.995V13H16.595V4.04ZM14.787 1.784C14.787 2.296 15.235 2.696 15.795 2.696C16.355 2.696 16.819 2.296 16.819 1.784C16.819 1.272 16.355 0.855999 15.795 0.855999C15.235 0.855999 14.787 1.272 14.787 1.784ZM22.4425 13.048C24.9865 13.048 26.6025 11.912 26.6025 10.232C26.6025 8.28 25.0345 7.592 22.4425 7.592C20.6185 7.592 20.1705 7.144 20.1705 6.584C20.1705 5.96 21.0185 5.448 22.4425 5.448C23.5305 5.448 24.0585 5.608 24.5385 5.864L24.7785 6.504H26.0105V4.92C25.9625 4.888 24.4745 3.992 22.4425 3.992C20.1865 3.992 18.5385 5.144 18.5385 6.584C18.5385 8.216 19.6265 9.16 22.4425 9.16C24.6505 9.16 24.9545 9.64 24.9545 10.232C24.9545 11.208 23.7065 11.608 22.4425 11.608C20.5545 11.608 19.3385 10.712 19.0505 10.504L18.2025 11.64C18.2825 11.704 20.0105 13.048 22.4425 13.048ZM32.9125 5.512C34.0325 5.512 34.6405 6.36 34.6405 7.304V13H36.2405V7.4C36.2405 5.112 34.8005 3.992 32.8005 3.992C31.7765 3.992 30.7045 4.6 29.7125 5.352V0.471999H28.1125V13H29.7125V6.936C30.8005 6.072 31.7925 5.512 32.9125 5.512ZM39.7669 4.04H38.1669V13H39.7669V4.04ZM37.9589 1.784C37.9589 2.296 38.4069 2.696 38.9669 2.696C39.5269 2.696 39.9909 2.296 39.9909 1.784C39.9909 1.272 39.5269 0.855999 38.9669 0.855999C38.4069 0.855999 37.9589 1.272 37.9589 1.784Z" fill="#404040"/>
<path d="M47.0666 2.776C48.0106 2.776 49.0826 2.92 49.9146 3.304L50.1066 4.264H51.5146V2.328C50.2346 1.528 48.4746 1.176 47.0666 1.176C45.0986 1.176 42.1866 2.12 42.1866 4.408C42.1866 7.064 44.9386 7.592 47.3066 7.592C49.0986 7.592 50.4106 8.04 50.4106 9.464C50.4106 10.44 49.0986 11.448 46.9546 11.448C45.1466 11.448 43.7226 10.824 42.6826 9.8L41.7386 11.192C43.0506 12.344 44.7626 13.048 46.9706 13.048C49.4666 13.048 52.1866 11.672 52.1866 9.464C52.1866 6.632 49.8186 5.944 47.2266 5.944C45.4666 5.944 43.9626 5.64 43.9626 4.408C43.9626 3.512 45.4666 2.776 47.0666 2.776ZM55.4313 4.04H53.8313V9.64C53.8313 11.656 55.0793 13.048 57.4473 13.048C58.5193 13.048 59.6713 12.344 60.7113 11.544L60.9993 13H62.2793V4.04H60.6793V9.976C59.5433 10.92 58.5993 11.528 57.4473 11.528C55.9753 11.528 55.4313 10.52 55.4313 9.64V4.04ZM67.9581 13.048C70.5021 13.048 72.1181 11.912 72.1181 10.232C72.1181 8.28 70.5501 7.592 67.9581 7.592C66.1341 7.592 65.6861 7.144 65.6861 6.584C65.6861 5.96 66.5341 5.448 67.9581 5.448C69.0461 5.448 69.5741 5.608 70.0541 5.864L70.2941 6.504H71.5261V4.92C71.4781 4.888 69.9901 3.992 67.9581 3.992C65.7021 3.992 64.0541 5.144 64.0541 6.584C64.0541 8.216 65.1421 9.16 67.9581 9.16C70.1661 9.16 70.4701 9.64 70.4701 10.232C70.4701 11.208 69.2221 11.608 67.9581 11.608C66.0701 11.608 64.8541 10.712 64.5661 10.504L63.7181 11.64C63.7981 11.704 65.5261 13.048 67.9581 13.048ZM78.4281 5.512C79.5481 5.512 80.1561 6.36 80.1561 7.304V13H81.7561V7.4C81.7561 5.112 80.3161 3.992 78.3161 3.992C77.2921 3.992 76.2201 4.6 75.2281 5.352V0.471999H73.6281V13H75.2281V6.936C76.3161 6.072 77.3081 5.512 78.4281 5.512ZM85.2825 4.04H83.6825V13H85.2825V4.04ZM83.4745 1.784C83.4745 2.296 83.9225 2.696 84.4825 2.696C85.0425 2.696 85.5065 2.296 85.5065 1.784C85.5065 1.272 85.0425 0.855999 84.4825 0.855999C83.9225 0.855999 83.4745 1.272 83.4745 1.784Z" fill="#F0AF3B"/>
</svg>
