<svg xmlns="http://www.w3.org/2000/svg" width="20" height="18" fill="none"><path stroke="#F0AF3B" stroke-width="2" d="m18.015 7.442-.004.003-3.43 3.26-.019.018-.018.02a1.3 1.3 0 0 0-.347 1.04l.003.03.005.03.81 4.61.002.006a.352.352 0 0 1-.149.354l-.012.008-.012.009a.418.418 0 0 1-.245.08h-.006a.438.438 0 0 1-.204-.05l-4.23-2.18-.018-.008-.017-.008a1.32 1.32 0 0 0-1.117 0l-.017.008-.018.009-4.23 2.18-.005.002a.427.427 0 0 1-.449-.032l-.012-.01-.013-.008a.352.352 0 0 1-.149-.354l.001-.006.81-4.61.006-.03.003-.03a1.3 1.3 0 0 0-.347-1.04l-.018-.02-.02-.018-3.43-3.26-.003-.003a.369.369 0 0 1-.097-.385.414.414 0 0 1 .336-.277h.006l4.727-.67a1.286 1.286 0 0 0 .978-.705L9.178 1.23a.441.441 0 0 1 .775 0l2.112 4.175a1.286 1.286 0 0 0 .983.706l4.722.669h.006a.414.414 0 0 1 .336.277.37.37 0 0 1-.097.385Z"/></svg>