<svg xmlns="http://www.w3.org/2000/svg" width="19" height="18" fill="none"><path fill="#3AC457" fill-rule="evenodd" d="M17.753 8.29a3.15 3.15 0 0 0 .08-3.192A3.116 3.116 0 0 0 16.68 3.92a3.08 3.08 0 0 0-1.587-.42h-.238v-.125a3.407 3.407 0 0 0-.994-2.39A3.346 3.346 0 0 0 11.483 0a3.27 3.27 0 0 0-2.49 1.131A3.42 3.42 0 0 0 6.98.479a3.17 3.17 0 0 0-2.1.76A3.222 3.222 0 0 0 3.787 3.2c-.506.218-.938.58-1.243 1.041a2.875 2.875 0 0 0-.477 1.557c-.01.2.01.4.057.594a3.043 3.043 0 0 0-1.632 1.25 3.088 3.088 0 0 0 .424 3.87c.504.496 1.162.8 1.864.86.146.533.464 1.001.902 1.332.438.332.973.507 1.52.5a2.58 2.58 0 0 0 2.014-1.006c.713.948.827 2.184.827 4.197a.571.571 0 0 0 .365.56c.075.028.154.04.233.035h2.546a.51.51 0 0 0 .409-.183.597.597 0 0 0 .18-.412c-.1-1.2.124-2.405.646-3.489.18 0 .304.058.475.058a3.532 3.532 0 0 0 2.138-.767c.358.141.737.222 1.12.24a2.82 2.82 0 0 0 2.005-.83 2.87 2.87 0 0 0 .836-2.017 3.302 3.302 0 0 0-1.244-2.3Zm-7.22 8.579H9.174c0-2.013-.237-3.556-1.539-4.917v-.355a3.419 3.419 0 0 0 1.89-.172c.115.435.316.843.59 1.199.274.356.616.652 1.007.871a13.575 13.575 0 0 0-.59 3.374Zm5.567-4.677a2.133 2.133 0 0 1-.893-.24 2.19 2.19 0 0 1-.409-.355.651.651 0 0 0-.836-.115.623.623 0 0 0-.114.825c.055.065.116.126.18.182a1.951 1.951 0 0 1-1.13.354 2.081 2.081 0 0 1-1.452-.61 2.117 2.117 0 0 1-.619-1.46v-.24a2.04 2.04 0 0 1 .59-1.236.592.592 0 0 0-.414-1.006.582.582 0 0 0-.413.172 3.18 3.18 0 0 0-.884 1.716 1.958 1.958 0 0 1-2.432-.115 1.901 1.901 0 0 1-.646-1.419c.01-.202.048-.402.114-.594a.596.596 0 0 0-.192-.66.584.584 0 0 0-.216-.107.59.59 0 0 0-.66.194.603.603 0 0 0-.11.219 2.371 2.371 0 0 0-.123.948 3.101 3.101 0 0 0 1.007 2.3c.16.227.243.5.237.777a1.352 1.352 0 0 1-.393.972 1.328 1.328 0 0 1-.965.39 1.372 1.372 0 0 1-1.245-.777c.332-.1.65-.238.95-.412a.521.521 0 0 0 .238-.621.524.524 0 0 0-.124-.204.539.539 0 0 0-.383-.262.531.531 0 0 0-.443.138c-.286.23-.641.355-1.007.354h-.124a1.943 1.943 0 0 1-1.369-.57 1.978 1.978 0 0 1-.578-1.375 1.94 1.94 0 0 1 .5-1.28c.318-.35.752-.57 1.22-.618a1.44 1.44 0 0 1 .997.182c.07.045.154.065.237.058a.555.555 0 0 0 .532-.355.58.58 0 0 0-.294-.767 3.678 3.678 0 0 0-1.178-.297.803.803 0 0 1-.067-.412c.002-.369.125-.726.35-1.016.226-.29.54-.496.895-.585a1.507 1.507 0 0 1 1.301.24.47.47 0 0 1 .304 0 .605.605 0 0 0 .466-.297.585.585 0 0 0-.171-.834 2.317 2.317 0 0 0-1.368-.412c.157-.396.427-.736.775-.978.348-.242.759-.375 1.182-.383a2.169 2.169 0 0 1 1.596.766c.133.19.253.389.36.595a.563.563 0 0 0 .77.297.618.618 0 0 0 .352-.767c-.057-.182-.18-.355-.238-.537a2.215 2.215 0 0 1 1.72-.824 2.152 2.152 0 0 1 1.543.634 2.19 2.19 0 0 1 .642 1.551 3.07 3.07 0 0 1-.114.71c-.143.46-.427.863-.811 1.15a2.252 2.252 0 0 1-1.327.45.555.555 0 0 0-.553.362.569.569 0 0 0-.036.232.558.558 0 0 0 .36.552.546.546 0 0 0 .23.033 3.266 3.266 0 0 0 1.842-.533 3.31 3.31 0 0 0 1.235-1.48c.174-.065.356-.104.542-.115.513.004 1.005.21 1.37.576.364.366.571.861.577 1.38.01.403-.113.797-.351 1.121a1.927 1.927 0 0 0-.599-.057.554.554 0 0 0-.553.361.566.566 0 0 0-.036.233.558.558 0 0 0 .36.551.547.547 0 0 0 .23.033c.203.014.405.056.598.125.314.11.587.318.778.593.191.275.291.604.286.94a1.626 1.626 0 0 1-.452 1.17 1.597 1.597 0 0 1-1.144.489Z" clip-rule="evenodd"/></svg>